<svg width="27" height="36" viewBox="0 0 27 36" fill="none" xmlns="http://www.w3.org/2000/svg">
<path d="M8.60496 16.7176L9.10977 16.2086L11.8682 19.063L12.578 19.7975L13.2973 19.0723L18.6111 13.7146L19.1194 14.227L12.5933 20.807L8.60496 16.7176ZM13.7518 2.06068L13.406 1.9344L13.0609 2.06246L1.65213 6.29559L1 6.53755V7.23313V17.7239C1 23.9192 4.33086 29.018 9.62893 32.0289L9.63666 32.0333L9.64446 32.0376L13.0214 33.8781L13.5 34.1389L13.9786 33.8781L17.3555 32.0376L17.3589 32.0357C22.6763 29.1113 26 23.9105 26 17.7239V7.23313V6.53373L25.343 6.29381L13.7518 2.06068Z" stroke="#0F3A74" stroke-width="2"/>
</svg>
