<svg width="29" height="34" viewBox="0 0 29 34" fill="none" xmlns="http://www.w3.org/2000/svg">
<rect width="15.5885" height="15.5885" transform="matrix(0.866025 0.5 -0.866025 0.5 14.5 1)" stroke="#1D57A4" stroke-width="2" stroke-linejoin="bevel"/>
<rect width="15.5885" height="15.5885" transform="matrix(0.866025 -0.5 2.20305e-08 1 14.4383 16.8572)" stroke="#1D57A4" stroke-width="2" stroke-linejoin="bevel"/>
<rect width="15.5885" height="15.5885" transform="matrix(0.866025 0.5 -2.20305e-08 1 1 9.06299)" stroke="#1D57A4" stroke-width="2" stroke-linejoin="bevel"/>
<path d="M22.4248 23.2144L20.8112 24.146L20.8112 25.2827L19.2889 26.1616L19.2889 25.0249L18.2588 25.6196L18.2588 24.1958L19.2889 23.6011L19.2889 23.1558L18.2588 23.7505L18.2588 22.3267L19.2889 21.7319L19.2889 17.6304L22.161 15.9722C22.7158 15.6519 23.2029 15.4858 23.6224 15.4741C24.0419 15.4624 24.3666 15.605 24.5967 15.9019C24.8301 16.1929 24.9468 16.6118 24.9468 17.1587C24.9468 18.0024 24.6982 18.812 24.2009 19.5874C23.707 20.3608 23.0185 21.0024 22.1356 21.5122L20.8112 22.2769L20.8112 22.7222L22.4248 21.7905L22.4248 23.2144ZM20.8112 20.853L22.1255 20.0942C22.978 19.6021 23.4042 18.9243 23.4042 18.061C23.4042 17.6509 23.2959 17.3833 23.0794 17.2583C22.8629 17.1294 22.5635 17.1733 22.1813 17.3901L20.8112 18.1812L20.8112 20.853Z" fill="#1D57A4"/>
</svg>
