<svg width="36" height="34" viewBox="0 0 36 34" fill="none" xmlns="http://www.w3.org/2000/svg">
<path d="M31.816 10.752L35.864 16.912L33.356 17.044C33.356 17.88 33.312 18.716 33.18 19.508C32.652 22.984 31.024 26.196 28.516 28.704C25.656 31.564 21.872 33.28 17.868 33.544L16.24 31.168C20.156 31.3 23.984 29.804 26.756 27.032C28.78 25.008 30.1 22.456 30.628 19.728C30.804 18.936 30.848 18.1 30.848 17.264L28.472 17.396L31.816 10.752ZM26.756 6.96799C27.768 7.97999 28.604 9.07999 29.264 10.312L30.584 7.71599C30.012 6.83599 29.308 5.99999 28.516 5.20799C23.192 -0.0720116 14.964 -1.12801 8.49604 2.56799L7.13204 0.499988L3.83204 7.09999L11.18 6.65999L9.86003 4.63599C15.316 1.55599 22.268 2.47999 26.756 6.96799ZM8.36404 31.388L7.26404 33.632L14.612 33.192L10.52 27.032L9.46404 29.188C8.45204 28.616 7.57204 27.868 6.73604 27.032C2.07204 22.368 1.28004 15.064 4.75604 9.47599L1.85204 9.65199C-1.22796 15.944 -0.0399641 23.688 5.02004 28.748C5.98804 29.804 7.13204 30.684 8.36404 31.388Z" fill="white"/>
</svg>
