<svg width="37" height="38" viewBox="0 0 37 38" fill="none" xmlns="http://www.w3.org/2000/svg">
<path d="M32.5939 15.398L31.9831 15.7507L32.1104 16.4445C32.2643 17.2831 32.355 18.133 32.355 19C32.355 19.867 32.2643 20.7169 32.1104 21.5555L31.9831 22.2493L32.5939 22.602L35.5343 24.2999C34.7288 26.9128 33.3541 29.2765 31.5421 31.2325L28.5932 29.5291L27.9806 29.1752L27.4429 29.6351C26.1524 30.7392 24.6578 31.6061 23.0219 32.1841L22.355 32.4197V33.127V36.5307C21.0627 36.8308 19.7268 36.999 18.355 36.999C16.9828 36.999 15.6469 36.8314 14.355 36.5311V33.127V32.4197L13.6881 32.1841C12.0519 31.606 10.5575 30.74 9.26738 29.6354L8.72972 29.175L8.1168 29.5291L5.16789 31.2325C3.35589 29.2765 1.98124 26.9128 1.17565 24.2999L4.11605 22.602L4.72692 22.2493L4.59957 21.5555C4.44565 20.7169 4.355 19.867 4.355 19C4.355 18.133 4.44565 17.283 4.5996 16.4433L4.72679 15.7497L4.11606 15.397L1.17565 13.6991C1.98124 11.0862 3.35589 8.72249 5.16789 6.76646L8.1168 8.46991L8.72945 8.82381L9.26707 8.36388C10.5576 7.25984 12.0522 6.39289 13.6881 5.81488L14.355 5.57927V4.872V1.46828C15.6473 1.16818 16.9832 1 18.355 1C19.7272 1 21.0631 1.16757 22.355 1.46794V4.873V5.58027L23.0219 5.81588C24.6581 6.39399 26.1525 7.25998 27.4426 8.3646L27.9803 8.82496L28.5932 8.47091L31.5421 6.76746C33.3541 8.72349 34.7288 11.0872 35.5343 13.7001L32.5939 15.398ZM10.355 19C10.355 23.4195 13.9369 27 18.356 27C22.7711 27 26.355 23.4195 26.355 19C26.355 14.5805 22.7711 11 18.356 11C13.9369 11 10.355 14.5805 10.355 19Z" stroke="white" stroke-width="2"/>
</svg>
