<svg width="33" height="40" viewBox="0 0 33 40" fill="none" xmlns="http://www.w3.org/2000/svg">
<path d="M31.6113 4.95406L31.6386 4.96126L31.6663 4.96691C31.7489 4.98379 31.805 5.01926 31.8562 5.08022C31.9065 5.1401 31.9616 5.23866 32 5.38404V24.1801C32 26.4602 30.9936 28.6332 29.3144 30.1193L29.1425 30.2714L16.7414 38.8824C16.6413 38.9331 16.5771 38.964 16.5203 38.9857C16.5126 38.9887 16.5058 38.9911 16.5 38.9931C16.4942 38.9911 16.4874 38.9887 16.4797 38.9857C16.4229 38.964 16.3587 38.9331 16.2586 38.8824L3.79703 30.2294L3.73737 30.1685L3.7253 30.1562L3.71282 30.1443C2.00313 28.5148 1 26.3258 1 24.0514V5.27331C1 5.22012 1.02028 5.15235 1.08082 5.08022C1.14705 5.00132 1.22287 4.96426 1.25499 4.95606L1.25499 4.95609L1.2627 4.95406L16.2518 1H16.2522H16.2535H16.2547H16.256H16.2572H16.2584H16.2597H16.2609H16.2622H16.2634H16.2646H16.2659H16.2671H16.2683H16.2696H16.2708H16.272H16.2732H16.2745H16.2757H16.2769H16.2781H16.2793H16.2805H16.2817H16.283H16.2842H16.2854H16.2866H16.2878H16.289H16.2902H16.2914H16.2926H16.2938H16.295H16.2962H16.2974H16.2986H16.2997H16.3009H16.3021H16.3033H16.3045H16.3057H16.3069H16.308H16.3092H16.3104H16.3116H16.3128H16.3139H16.3151H16.3163H16.3174H16.3186H16.3198H16.3209H16.3221H16.3233H16.3244H16.3256H16.3268H16.3279H16.3291H16.3302H16.3314H16.3326H16.3337H16.3349H16.336H16.3372H16.3383H16.3395H16.3406H16.3418H16.3429H16.3441H16.3452H16.3464H16.3475H16.3486H16.3498H16.3509H16.3521H16.3532H16.3543H16.3555H16.3566H16.3578H16.3589H16.36H16.3612H16.3623H16.3634H16.3646H16.3657H16.3668H16.3679H16.3691H16.3702H16.3713H16.3724H16.3736H16.3747H16.3758H16.3769H16.3781H16.3792H16.3803H16.3814H16.3826H16.3837H16.3848H16.3859H16.387H16.3882H16.3893H16.3904H16.3915H16.3926H16.3937H16.3949H16.396H16.3971H16.3982H16.3993H16.4004H16.4015H16.4026H16.4038H16.4049H16.406H16.4071H16.4082H16.4093H16.4104H16.4115H16.4126H16.4138H16.4149H16.416H16.4171H16.4182H16.4193H16.4204H16.4215H16.4226H16.4237H16.4248H16.426H16.4271H16.4282H16.4293H16.4304H16.4315H16.4326H16.4337H16.4348H16.4359H16.437H16.4381H16.4392H16.4403H16.4415H16.4426H16.4437H16.4448H16.4459H16.447H16.4481H16.4492H16.4503H16.4514H16.4525H16.4536H16.4547H16.4559H16.457H16.4581H16.4592H16.4603H16.4614H16.4625H16.4636H16.4647H16.4658H16.4669H16.4681H16.4692H16.4703H16.4714H16.4725H16.4736H16.4747H16.4758H16.477H16.4781H16.4792H16.4803H16.4814H16.4825H16.4837H16.4848H16.4859H16.487H16.4881H16.4892H16.4904H16.4915H16.4926H16.4937H16.4949H16.496H16.4971H16.4982H16.4993H16.5005H16.5016H16.5027H16.5038H16.505H16.5061H16.5072H16.5084H16.5095H16.5106H16.5118H16.5129H16.514H16.5152H16.5163H16.5174H16.5186H16.5197H16.5208H16.522H16.5231H16.5243H16.5254H16.5265H16.5277H16.5288H16.53H16.5311H16.5323H16.5334H16.5346H16.5357H16.5369H16.538H16.5392H16.5403H16.5415H16.5426H16.5438H16.545H16.5461H16.5473H16.5484H16.5496H16.5508H16.5519H16.5531H16.5543H16.5554H16.5566H16.5578H16.5589H16.5601H16.5613H16.5625H16.5636H16.5648H16.566H16.5672H16.5684H16.5695H16.5707H16.5719H16.5731H16.5743H16.5755H16.5767H16.5779H16.5791H16.5803H16.5815H16.5827H16.5839H16.5851H16.5863H16.5875H16.5887H16.5899H16.5911H16.5923H16.5935H16.5947H16.5959H16.5972H16.5984H16.5996H16.6008H16.602H16.6033H16.6045H16.6057H16.6069H16.6082H16.6094H16.6106H16.6119H16.6131H16.6144H16.6156H16.6168H16.6181H16.6193H16.6206H16.6218H16.6222L31.6113 4.95406Z" stroke="white" stroke-width="2"/>
<path d="M9.82609 16.5728L8 18.4757L14.2609 25L26 12.9029L24.1739 11L14.2609 21.1942L9.82609 16.5728Z" fill="white"/>
</svg>
