<svg width="2428" height="1010" viewBox="0 0 2428 1010" fill="none" xmlns="http://www.w3.org/2000/svg">
<path fill-rule="evenodd" clip-rule="evenodd" d="M1684.37 154.596C1684.37 154.596 1683.82 214.27 1664.09 268.548C1645.3 320.22 1604.1 384.329 1546.78 439.114C1464.95 517.347 1369.21 586.256 1308.28 621.793C1247.35 657.33 1148.88 704.462 1110.8 717.159C1074.12 729.377 983.242 752.385 930.572 742.541C862.429 729.831 859.497 679.08 879.808 610.535C900.106 542.003 1021.96 118.073 1021.96 118.073C555.966 152.313 212.682 310.92 212.682 504.442C212.682 722.892 661.838 899.968 1215.93 899.968C1770 899.968 2219.18 722.892 2219.18 504.442C2219.17 352.722 2002.43 220.949 1684.37 154.596ZM1534.69 702.802C1534.69 702.802 1472.68 702.478 1445.37 703.399C1419.51 704.268 1439.26 725.629 1483.03 750.738C1507.75 764.94 1507.75 786.859 1504.26 800.931C1501.12 813.486 1475.35 828.44 1447.44 833.511C1419.96 838.518 1346.29 845.197 1305.66 847.752C1265.05 850.281 1178.5 850.333 1130.27 850.333C1082.03 850.333 1003.28 842.603 955.059 837.532C911.48 832.94 819.758 817.74 819.758 817.74L830.601 776.431C830.601 776.431 863.972 784.628 922.362 792.241C980.739 799.855 1038.31 802.695 1129.7 803.538C1203.43 804.226 1274.06 786.483 1303.71 767.949C1328.82 752.243 1328.99 729.52 1311.34 717.172C1284.94 698.703 1268.63 696.979 1273.26 679.093C1279.37 655.346 1304.67 648.964 1334.18 648.627C1372.26 648.199 1534.78 648.472 1534.78 648.472L1534.69 702.802Z" fill="#2D509F"/>
<path fill-rule="evenodd" clip-rule="evenodd" d="M1214 0.994934C543.943 0.994934 0.769287 226.643 0.769287 505C0.769287 783.357 543.943 1009.01 1214 1009.01C1884.06 1009.01 2427.24 783.357 2427.24 505C2427.24 226.643 1884.06 0.994934 1214 0.994934ZM1214.09 962.353C571.283 962.353 50.1971 757.638 50.1971 505.104C50.1971 268.419 508.678 73.9369 1095.65 50.4357C1083.71 89.8508 972.685 476.7 950.856 549.616C918.276 658.458 950.779 674.969 1020.12 626.086C1082.21 582.3 1134.53 533.261 1182.94 471.421C1232.35 408.31 1262.44 345.887 1271.79 301.336C1282.31 251.285 1278.71 188.849 1253.08 129.512C1239.39 97.7883 1219.55 59.3848 1213.68 48.0751C1856.7 48.0751 2377.97 252.569 2377.97 505.091C2377.97 757.612 1856.9 962.353 1214.09 962.353Z" fill="#2D509F"/>
</svg>
