<svg width="137" height="36" viewBox="0 0 137 36" fill="none" xmlns="http://www.w3.org/2000/svg">
<path d="M134.5 15.2C133.9 16.4 133.1 17.3 132 18C130.9 18.6 129.7 19 128.2 19C127.3 19 126.4 18.9 125.6 18.6C124.8 18.3 124.1 17.9 123.4 17.4C122.5 16.7 121.9 15.9 121.5 15C121.1 14.1 120.9 13 120.9 11.9C120.9 9.7 121.6 8 123 6.6C124.4 5.2 126.2 4.5 128.4 4.5C129.7 4.5 130.8 4.8 131.7 5.3C132.6 5.8 133.5 6.6 134.2 7.7L132.4 9C132 8.1 131.5 7.4 130.9 7C130.3 6.6 129.6 6.3 128.8 6.3C127.6 6.3 126.7 6.8 126 7.7C125.3 8.7 125 10 125 11.8C125 13.4 125.4 14.7 126.1 15.7C126.9 16.7 127.8 17.2 129.1 17.2C129.9 17.2 130.6 16.9 131.2 16.5C131.8 16 132.4 15.3 132.9 14.3L134.5 15.2Z" fill="#231F20"/>
<path d="M118.4 4.69995H114.5V18.6H118.4V4.69995Z" fill="#231F20"/>
<path d="M105 18.5V6.59995H101.3V4.69995H112.6V6.59995H108.9V18.5H105Z" fill="#231F20"/>
<path d="M92.3 15C92.6 15.7 92.9 16.2 93.4 16.5C93.8 16.9 94.3 17 94.8 17C95.3 17 95.8 16.8 96.1 16.5C96.4 16.2 96.6 15.8 96.6 15.3C96.6 14.9 96.5 14.6 96.2 14.3C95.9 14 95.5 13.7 94.9 13.4L94.3 13.1C93 12.4 92.3 12 92 11.8C91.5 11.3 91.1 10.9 90.9 10.4C90.7 9.89995 90.6 9.39995 90.6 8.79995C90.6 7.49995 91 6.39995 91.9 5.49995C92.8 4.69995 94 4.19995 95.4 4.19995C96.4 4.19995 97.3 4.39995 98.1 4.89995C98.9 5.39995 99.5 5.99995 99.9 6.89995L98.3 7.99995C98 7.29995 97.7 6.79995 97.2 6.49995C96.8 6.19995 96.3 5.99995 95.7 5.99995C95.2 5.99995 94.8 6.19995 94.5 6.49995C94.2 6.79995 94 7.19995 94 7.59995C94 7.99995 94.1 8.29995 94.4 8.59995C94.7 8.89995 95.2 9.19995 95.9 9.59995L96.2 9.69995C97.6 10.4 98.5 10.9 98.8 11.1C99.3 11.5 99.7 12 99.9 12.4C100.1 12.9 100.2 13.4 100.2 14C100.2 15.4 99.7 16.5 98.8 17.3C97.8 18.2 96.6 18.6 95.1 18.6C94 18.6 93.1 18.4 92.2 17.9C91.4 17.4 90.7 16.8 90.3 15.9L92.3 15Z" fill="#231F20"/>
<path d="M87.9 4.69995H84V18.6H87.9V4.69995Z" fill="#231F20"/>
<path d="M55.3 11.5999C55.3 13.2999 55.6 14.6999 56.1 15.6999C56.7 16.6999 57.4 17.1999 58.4 17.1999C59.4 17.1999 60.2 16.6999 60.7 15.6999C61.3 14.6999 61.5 13.3999 61.5 11.5999C61.5 9.8999 61.2 8.4999 60.7 7.4999C60.1 6.4999 59.4 5.9999 58.4 5.9999C57.4 5.9999 56.6 6.4999 56.1 7.4999C55.6 8.5999 55.3 9.8999 55.3 11.5999ZM58.5 4.3999C59.5 4.3999 60.4 4.5999 61.3 4.8999C62.2 5.1999 62.9 5.6999 63.6 6.1999C64.4 6.8999 64.9 7.6999 65.3 8.5999C65.7 9.4999 65.9 10.4999 65.9 11.5999C65.9 12.6999 65.7 13.6999 65.3 14.5999C64.9 15.4999 64.3 16.2999 63.6 16.9999C63 17.5999 62.2 17.9999 61.3 18.2999C60.4 18.5999 59.5 18.7999 58.5 18.7999C57.5 18.7999 56.6 18.5999 55.7 18.2999C54.8 17.9999 54.1 17.4999 53.4 16.9999C52.6 16.2999 52 15.4999 51.7 14.5999C51.3 13.6999 51.1 12.6999 51.1 11.5999C51.1 10.4999 51.3 9.4999 51.7 8.5999C52.1 7.6999 52.7 6.8999 53.4 6.1999C54 5.5999 54.8 5.1999 55.7 4.8999C56.6 4.5999 57.6 4.3999 58.5 4.3999Z" fill="#231F20"/>
<path d="M41.8 18.5V4.69995H45.6V16.7H50.7001V18.5H41.8Z" fill="#231F20"/>
<path d="M34.4 16.4C33.5 17.2 32.4 17.8 31.2 18.3C30 18.7 28.8 18.9 27.6 18.9C26.6 18.9 25.7 18.8 24.9 18.5C24.1 18.2 23.3 17.8 22.7 17.3C21.8 16.6 21.1999 15.8 20.7999 14.8C20.3999 13.9 20.2 12.8 20.2 11.6C20.2 10.6 20.3999 9.6 20.7999 8.6C21.1999 7.6 21.8 6.8 22.6 6.2C23.3 5.6 23.9999 5.2 24.9 4.9C25.8 4.6 26.7 4.5 27.7 4.5C29 4.5 30.1 4.8 31 5.3C31.9 5.8 32.8 6.6 33.5 7.7L31.7 9C31.3 8.1 30.8 7.4 30.2 7C29.6 6.6 28.9 6.3 28.1 6.3C26.9 6.3 25.9999 6.8 25.2999 7.7C24.5999 8.7 24.2999 10 24.2999 11.8C24.2999 13.4 24.7 14.7 25.4 15.7C26.0999 16.7 27.0999 17.2 28.2999 17.2C28.6999 17.2 29.2 17.1 29.5 17C29.9 16.9 30.3 16.7 30.6 16.4V14.1H29.4V12H34.2999V13.9V16.4H34.4Z" fill="#231F20"/>
<path d="M10.9 6.39995V10.6H11.7C12.6 10.6 13.3 10.4 13.7 10.1C14.1 9.79995 14.3 9.19995 14.3 8.49995C14.3 7.79995 14.1 7.29995 13.7 6.89995C13.3 6.59995 12.7 6.39995 11.9 6.39995H10.9ZM10.9 12.3V16.8H11.8C12.8 16.8 13.5 16.6 14 16.3C14.4 16 14.6 15.4 14.6 14.5C14.6 13.7 14.4 13.2 14 12.8C13.6 12.4 12.9 12.3 12.1 12.3H10.9ZM7.09998 18.5V4.69995H13.4C14.9 4.69995 16.1 4.99995 16.9 5.69995C17.8 6.39995 18.2 7.29995 18.2 8.49995C18.2 9.29995 18 9.99995 17.5 10.5C17 11 16.3 11.4 15.3 11.5C16.4 11.8 17.2 12.2 17.8 12.8C18.4 13.4 18.7 14.1 18.7 14.9C18.7 16.1 18.3 16.9 17.5 17.6C16.7 18.2 15.5 18.5 13.9 18.5H7.09998Z" fill="#231F20"/>
<path d="M81.6 16.2999C80.7 17.0999 79.6 17.6999 78.4 18.1999C77.2 18.5999 76 18.7999 74.8 18.7999C73.8 18.7999 72.9 18.6999 72.1 18.3999C71.3 18.0999 70.5 17.6999 69.9 17.1999C69 16.4999 68.4 15.6999 68 14.6999C67.6 13.7999 67.4 12.6999 67.4 11.4999C67.4 10.4999 67.6 9.4999 68 8.4999C68.4 7.4999 69 6.6999 69.8 6.0999C70.5 5.4999 71.2 5.0999 72.1 4.7999C73 4.4999 73.9 4.3999 74.9 4.3999C76.2 4.3999 77.3 4.6999 78.2 5.1999C79.1 5.6999 80 6.4999 80.7 7.5999L78.9 8.8999C78.5 7.9999 78 7.2999 77.4 6.8999C76.8 6.4999 76.1 6.1999 75.3 6.1999C74.1 6.1999 73.2 6.6999 72.5 7.5999C71.8 8.5999 71.5 9.8999 71.5 11.6999C71.5 13.2999 71.9 14.5999 72.6 15.5999C73.3 16.5999 74.3 17.0999 75.5 17.0999C75.9 17.0999 76.4 16.9999 76.7 16.8999C77.1 16.7999 77.5 16.5999 77.8 16.2999V13.9999H76.6V11.9999H81.5V13.8999V16.2999H81.6Z" fill="#231F20"/>
<path d="M4.8 0H0V4.7H4.8V0Z" fill="#4CC3E5"/>
<path d="M28.2 27.7H6.5V35.9H28.2V27.7Z" fill="#2162A9"/>
<path d="M49.9 27.7H28.2V35.9H49.9V27.7Z" fill="#267DC0"/>
<path d="M71.6 27.7H49.9V35.9H71.6V27.7Z" fill="#479CD6"/>
<path d="M93.3 27.7H71.6V35.9H93.3V27.7Z" fill="#4BC1E6"/>
<path d="M115 27.7H93.3V35.9H115V27.7Z" fill="#89D4E7"/>
<path d="M136.7 27.7H115V35.9H136.7V27.7Z" fill="#E6EBEF"/>
</svg>
