<svg width="328" height="28" viewBox="0 0 328 28" fill="none" xmlns="http://www.w3.org/2000/svg">
<g clip-path="url(#clip0)">
<path d="M287.018 6.81494H266.528V27.4075H287.018V6.81494Z" fill="#5AC1E6"/>
<path d="M266.528 6.81494H246.037V27.4075H266.528V6.81494Z" fill="#4D9DD7"/>
<path d="M307.509 6.81494H287.018V27.4075H307.509V6.81494Z" fill="#99D6E8"/>
<path d="M246.037 6.81494H225.546V27.4075H246.037V6.81494Z" fill="#147BD0"/>
<path d="M225.546 6.81494H205.055V27.4075H225.546V6.81494Z" fill="#1D57A4"/>
<path d="M328 6.81494H307.509V27.4075H328V6.81494Z" fill="#ECF0F4"/>
<path d="M198.274 22.5186C197.39 24.2964 196.21 25.6297 194.589 26.6667C192.967 27.5556 191.198 28.1482 188.987 28.1482C187.66 28.1482 186.333 28.0001 185.154 27.5556C183.975 27.1112 182.943 26.5186 181.911 25.7779C180.584 24.7408 179.7 23.5556 179.11 22.2223C178.52 20.889 178.226 19.2593 178.226 17.6297C178.226 14.3705 179.258 11.8519 181.321 9.77786C183.385 7.70378 186.039 6.66675 189.282 6.66675C191.198 6.66675 192.82 7.11119 194.147 7.85193C195.473 8.59267 196.8 9.77786 197.832 11.4075L195.178 13.3334C194.589 12.0001 193.852 10.963 192.967 10.3705C192.083 9.77786 191.051 9.33341 189.871 9.33341C188.102 9.33341 186.776 10.0742 185.744 11.4075C184.712 12.889 184.27 14.8149 184.27 17.4816C184.27 19.8519 184.859 21.7779 185.891 23.2593C187.071 24.7408 188.397 25.4816 190.314 25.4816C191.493 25.4816 192.525 25.0371 193.409 24.4445C194.294 23.7038 195.178 22.6667 195.916 21.1853L198.274 22.5186Z" fill="black"/>
<path d="M174.54 6.96289H168.791V27.5555H174.54V6.96289Z" fill="black"/>
<path d="M154.787 27.4073V9.77771H149.332V6.96289H165.99V9.77771H160.536V27.4073H154.787Z" fill="black"/>
<path d="M136.065 22.2222C136.507 23.2592 136.949 23.9999 137.686 24.4444C138.276 25.037 139.013 25.1851 139.75 25.1851C140.487 25.1851 141.224 24.8888 141.667 24.4444C142.109 23.9999 142.404 23.4074 142.404 22.6666C142.404 22.074 142.256 21.6296 141.814 21.1851C141.372 20.7407 140.782 20.2962 139.898 19.8518L139.013 19.4074C137.097 18.3703 136.065 17.7777 135.622 17.4814C134.885 16.7407 134.296 16.1481 134.001 15.4074C133.706 14.6666 133.559 13.9259 133.559 13.037C133.559 11.1111 134.148 9.48143 135.475 8.14809C136.802 6.96291 138.571 6.22217 140.635 6.22217C142.109 6.22217 143.435 6.51846 144.615 7.25921C145.794 7.99995 146.679 8.88884 147.268 10.2222L144.91 11.8518C144.467 10.8148 144.025 10.074 143.288 9.62958C142.698 9.18513 141.961 8.88883 141.077 8.88883C140.34 8.88883 139.75 9.18513 139.308 9.62958C138.866 10.074 138.571 10.6666 138.571 11.2592C138.571 11.8518 138.718 12.2962 139.16 12.7407C139.603 13.1851 140.34 13.6296 141.372 14.2222L141.814 14.3703C143.878 15.4074 145.204 16.1481 145.647 16.4444C146.384 17.037 146.973 17.7777 147.268 18.3703C147.563 19.1111 147.711 19.8518 147.711 20.7407C147.711 22.8148 146.973 24.4444 145.647 25.6296C144.173 26.9629 142.404 27.5555 140.192 27.5555C138.571 27.5555 137.244 27.2592 135.917 26.5185C134.738 25.7777 133.706 24.8888 133.116 23.5555L136.065 22.2222Z" fill="black"/>
<path d="M129.578 6.96289H123.829V27.5555H129.578V6.96289Z" fill="black"/>
<path d="M81.5209 17.1852C81.5209 19.7037 81.9631 21.7778 82.7002 23.2593C83.5847 24.7408 84.6166 25.4815 86.0908 25.4815C87.5649 25.4815 88.7442 24.7408 89.4813 23.2593C90.3658 21.7778 90.6607 19.8519 90.6607 17.1852C90.6607 14.6667 90.2184 12.5926 89.4813 11.1111C88.5968 9.62967 87.5649 8.88892 86.0908 8.88892C84.6166 8.88892 83.4373 9.62967 82.7002 11.1111C81.9631 12.7408 81.5209 14.6667 81.5209 17.1852ZM86.2382 6.51855C87.7123 6.51855 89.0391 6.81485 90.3658 7.2593C91.6926 7.70374 92.7245 8.44448 93.7564 9.18522C94.9357 10.2223 95.6728 11.4074 96.2625 12.7408C96.8521 14.0741 97.1469 15.5556 97.1469 17.1852C97.1469 18.8149 96.8521 20.2963 96.2625 21.6297C95.6728 22.963 94.7883 24.1482 93.7564 25.1852C92.8719 26.0741 91.6926 26.6667 90.3658 27.1111C89.0391 27.5556 87.7123 27.8519 86.2382 27.8519C84.764 27.8519 83.4373 27.5556 82.1105 27.1111C80.7838 26.6667 79.7519 25.926 78.72 25.1852C77.5406 24.1482 76.6562 22.963 76.2139 21.6297C75.6242 20.2963 75.3294 18.8149 75.3294 17.1852C75.3294 15.5556 75.6242 14.0741 76.2139 12.7408C76.8036 11.4074 77.6881 10.2223 78.72 9.18522C79.6045 8.29633 80.7838 7.70374 82.1105 7.2593C83.4373 6.81485 84.9114 6.51855 86.2382 6.51855Z" fill="black"/>
<path d="M61.6198 27.4073V6.96289H67.2215V24.7407H74.7398V27.4073H61.6198Z" fill="black"/>
<path d="M50.711 24.2964C49.3843 25.4816 47.7627 26.3705 45.9937 27.1112C44.2247 27.7038 42.4557 28.0001 40.6867 28.0001C39.2126 28.0001 37.8858 27.8519 36.7065 27.4075C35.5272 26.963 34.3478 26.3705 33.4633 25.6297C32.1366 24.5927 31.2521 23.4075 30.6624 21.926C30.0728 20.5927 29.778 18.963 29.778 17.1853C29.778 15.7038 30.0728 14.2223 30.6624 12.7408C31.2521 11.2593 32.1366 10.0742 33.3159 9.18527C34.3478 8.29638 35.3798 7.70379 36.7065 7.25934C38.0332 6.8149 39.36 6.66675 40.8341 6.66675C42.7505 6.66675 44.3721 7.11119 45.6989 7.85193C47.0256 8.59267 48.3523 9.77786 49.3842 11.4075L46.7308 13.3334C46.1411 12.0001 45.404 10.963 44.5195 10.3705C43.635 9.77786 42.6031 9.33342 41.4238 9.33342C39.6548 9.33342 38.3281 10.0742 37.2962 11.4075C36.2642 12.889 35.822 14.8149 35.822 17.4816C35.822 19.8519 36.4117 21.7779 37.4436 23.2593C38.4755 24.7408 39.9496 25.4816 41.7186 25.4816C42.3083 25.4816 43.0454 25.3334 43.4876 25.1853C44.0773 25.0371 44.6669 24.7408 45.1092 24.2964V20.889H43.3402V17.7779H50.5636V20.5927V24.2964H50.711Z" fill="black"/>
<path d="M16.0683 9.48141V15.7036H17.2476C18.5744 15.7036 19.6063 15.4073 20.1959 14.9629C20.7856 14.5184 21.0804 13.6296 21.0804 12.5925C21.0804 11.5555 20.7856 10.8147 20.1959 10.2222C19.6063 9.77771 18.7218 9.48141 17.5424 9.48141H16.0683ZM16.0683 18.2221V24.8888H17.395C18.8692 24.8888 19.9011 24.5925 20.6382 24.1481C21.2278 23.5555 21.5227 22.8147 21.5227 21.4814C21.5227 20.2962 21.2278 19.5555 20.6382 18.9629C20.0485 18.3703 19.0166 18.2221 17.8373 18.2221H16.0683ZM10.4665 27.4073V6.96289H19.7537C21.9649 6.96289 23.7339 7.40734 24.9132 8.44437C26.24 9.48141 26.8296 10.8147 26.8296 12.5925C26.8296 13.7777 26.5348 14.8147 25.7977 15.5555C25.0606 16.2962 24.0287 16.8888 22.5546 17.037C24.1762 17.4814 25.3555 18.074 26.24 18.9629C27.1245 19.8518 27.5667 20.8888 27.5667 22.074C27.5667 23.8518 26.9771 25.037 25.7977 26.074C24.6184 26.9629 22.8494 27.4073 20.4908 27.4073H10.4665Z" fill="black"/>
<path d="M120.291 24.1482C118.965 25.3334 117.343 26.2223 115.574 26.963C113.805 27.5556 112.036 27.8519 110.267 27.8519C108.793 27.8519 107.466 27.7037 106.287 27.2593C105.107 26.8148 103.928 26.2223 103.044 25.4815C101.717 24.4445 100.832 23.2593 100.243 21.7778C99.653 20.4445 99.3582 18.8149 99.3582 17.0371C99.3582 15.5556 99.653 14.0741 100.243 12.5926C100.832 11.1111 101.717 9.92596 102.896 9.03707C103.928 8.14818 104.96 7.55559 106.287 7.11115C107.613 6.6667 108.94 6.51855 110.414 6.51855C112.331 6.51855 113.952 6.963 115.279 7.70374C116.606 8.44448 117.933 9.62967 118.965 11.2593L116.311 13.1852C115.721 11.8519 114.984 10.8149 114.1 10.2223C113.215 9.62967 112.183 9.18522 111.004 9.18522C109.235 9.18522 107.908 9.92596 106.876 11.2593C105.845 12.7408 105.402 14.6667 105.402 17.3334C105.402 19.7037 105.992 21.6297 107.024 23.1111C108.056 24.5926 109.53 25.3334 111.299 25.3334C111.889 25.3334 112.626 25.1852 113.068 25.0371C113.658 24.8889 114.247 24.5926 114.689 24.1482V20.7408H112.92V17.7778H120.144V20.5926V24.1482H120.291Z" fill="black"/>
<path d="M7.07596 0H0V6.96296H7.07596V0Z" fill="#5AC1E6"/>
</g>
<defs>
<clipPath id="clip0">
<rect width="328" height="28" fill="white"/>
</clipPath>
</defs>
</svg>
